<svg id="Layer_1" data-name="Layer 1" xmlns="http://www.w3.org/2000/svg" viewBox="0 0 512 512"><defs><style>.cls-1{fill:#42424f;}.cls-2{fill:#ccc;}.cls-3{fill:#cc584c;}.cls-4{fill:#ffd464;}.cls-5{fill:#198058;}.cls-6{fill:#f5f5f5;}.cls-7{fill:#09ffad;}.cls-8{fill:#e16b5a;}</style></defs><title>beaker</title><circle class="cls-1" cx="256" cy="256" r="256"/><path class="cls-2" d="M100,396a28,28,0,0,1-28-28V140c0-15.44,8.56-24,24-24H412a28,28,0,0,1,28,28V368a28,28,0,0,1-28,28Z"/><circle class="cls-3" cx="95.81" cy="140" r="8"/><circle class="cls-4" cx="119.81" cy="140" r="8"/><circle class="cls-5" cx="143.81" cy="140" r="8"/><path class="cls-6" d="M403.81,144a4,4,0,0,1-4,4h-232a4,4,0,0,1-4-4v-8a4,4,0,0,1,4-4h232a4,4,0,0,1,4,4Z"/><path class="cls-6" d="M424,372a8,8,0,0,1-8,8H96a8,8,0,0,1-8-8V172a8,8,0,0,1,8-8H416a8,8,0,0,1,8,8Z"/><path class="cls-1" d="M160,356a8,8,0,0,1-8,8H112a8,8,0,0,1-8-8V188a8,8,0,0,1,8-8h40a8,8,0,0,1,8,8Z"/><path class="cls-7" d="M400,180a8,8,0,0,1,8,8v40a8,8,0,0,1-8,8H184a8,8,0,0,1-8-8V188a8,8,0,0,1,8-8Z"/><rect class="cls-1" x="176" y="248" width="232" height="8"/><rect class="cls-1" x="176" y="260" width="232" height="8"/><rect class="cls-1" x="176" y="272" width="232" height="8"/><rect class="cls-1" x="176" y="284" width="52" height="52"/><rect class="cls-8" x="236" y="284" width="52" height="52"/><rect class="cls-1" x="296" y="284" width="52" height="52"/><rect class="cls-1" x="356" y="284" width="52" height="52"/></svg>