<svg id="Layer_1" data-name="Layer 1" xmlns="http://www.w3.org/2000/svg" viewBox="0 0 112 150"><defs><style>.cls-1{fill:#545756;}</style></defs><title>logo-dark</title><g id="iPhone-8"><g id="Group-3"><g id="Combined-Shape"><path class="cls-1" d="M56,148.5A54.51,54.51,0,0,1,30.5,45.82V16.43a7,7,0,0,1,1-13.93h50a7,7,0,0,1,0,14V45.82A54.51,54.51,0,0,1,56,148.5ZM31.5,7.5a2,2,0,0,0,0,4h4V48.9l-1.39.69a49.5,49.5,0,1,0,43.78,0L76.5,48.9V11.5h5a2,2,0,0,0,0-4Z"/></g><path id="Combined-Shape-2" data-name="Combined-Shape" class="cls-1" d="M12,96h88a44,44,0,0,1-88,0Z"/></g></g></svg>