<svg xmlns="http://www.w3.org/2000/svg" viewBox="0 0 300 300"><defs><style>.cls-1{fill:#444443;}.cls-2{fill:#1e1e1e;}.cls-3{fill:#f76061;}.cls-4{fill:#f3f095;}.cls-5{fill:#99d595;}.cls-6{fill:#6687be;}.cls-7{fill:#75c57b;}.cls-8{fill:#6b6b6b;}</style></defs><title>dark</title><g id="Layer_2_copy" data-name="Layer 2 copy"><path class="cls-1" d="M284.52,7.5H16a9,9,0,0,0-9,9v15H293.5v-15A9,9,0,0,0,284.52,7.5Z"/></g><g id="Layer_2" data-name="Layer 2"><path class="cls-2" d="M7,31.5V285a9,9,0,0,0,9,9H284.52a9,9,0,0,0,9-9V31.5Z"/><circle class="cls-3" cx="24.17" cy="19.5" r="5.92"/><circle class="cls-4" cx="44.36" cy="19.5" r="5.92"/><circle class="cls-5" cx="64.55" cy="19.5" r="5.92"/><rect class="cls-3" x="16.75" y="194.95" width="82.2" height="18.4"/><rect class="cls-6" x="109.02" y="194.95" width="82.2" height="18.4"/><rect class="cls-5" x="201.3" y="194.95" width="82.2" height="18.4"/><path class="cls-7" d="M283.75,222.5H16.25v13.25h.25v26.46h-.17v1h.17V291H284V222.5ZM120,289.68V263.21H221.94v26.47Zm0-27.47V235.75H221.94v26.46Zm102.94-26.46H283v26.46H222.94Zm59.81-12.25v11.25H17.5V223.5ZM17.5,235.75H119v26.46H17.5Zm0,27.46H119V290H17.5ZM222.94,290V263.21H283V290Z"/><rect class="cls-8" x="17.5" y="235.75" width="101.5" height="26.46"/><rect class="cls-8" x="120.22" y="235.75" width="101.5" height="26.46"/><rect class="cls-8" x="222.94" y="235.75" width="59.81" height="26.46"/><rect class="cls-7" x="17" y="46.33" width="166" height="17.2" rx="8.6" ry="8.6"/><rect class="cls-7" x="216.55" y="46.33" width="66.95" height="17.2" rx="8.6" ry="8.6"/><rect class="cls-7" x="17" y="85.73" width="266.5" height="11.76" rx="5.88" ry="5.88"/><rect class="cls-7" x="17" y="107.49" width="258.75" height="11.76" rx="5.88" ry="5.88"/><rect class="cls-7" x="17" y="129.68" width="210.37" height="11.76" rx="5.88" ry="5.88"/><rect class="cls-7" x="17" y="151.44" width="251.29" height="11.76" rx="5.88" ry="5.88"/><rect class="cls-7" x="16.75" y="173.2" width="163.25" height="11.76" rx="5.88" ry="5.88"/><rect class="cls-7" x="21.1" y="225.16" width="138.73" height="7.94" rx="3.97" ry="3.97"/></g></svg>