<?xml version="1.0" encoding="utf-8"?>
<!-- Generator: Adobe Illustrator 22.1.0, SVG Export Plug-In . SVG Version: 6.00 Build 0)  -->
<svg version="1.1" id="Layer_1" xmlns="http://www.w3.org/2000/svg" xmlns:xlink="http://www.w3.org/1999/xlink" x="0px" y="0px"
	 viewBox="0 0 112 150" style="enable-background:new 0 0 112 150;" xml:space="preserve">
<style type="text/css">
	.st0{fill:#545756;}
</style>
<title>iPhone 8</title>
<desc>Created with Sketch.</desc>
<g id="iPhone-8">
	<g id="Group-3" transform="translate(4.000000, 5.000000)">
		<g id="Combined-Shape">
			<path class="st0" d="M52,143.5c-30.1,0-54.5-24.4-54.5-54.5c0-20.4,11.1-38.7,29-48.2V11.4c-3.4-0.5-6-3.4-6-6.9c0-3.9,3.1-7,7-7
				h50c3.9,0,7,3.1,7,7s-3.1,7-7,7v29.3c17.9,9.5,29,27.8,29,48.2C106.5,119.1,82.1,143.5,52,143.5z M27.5,2.5c-1.1,0-2,0.9-2,2
				s0.9,2,2,2h4v37.4l-1.4,0.7C13.1,53,2.5,70,2.5,89c0,27.3,22.2,49.5,49.5,49.5c27.3,0,49.5-22.2,49.5-49.5
				c0-19-10.6-36-27.6-44.4l-1.4-0.7V6.5h5c1.1,0,2-0.9,2-2s-0.9-2-2-2H27.5z"/>
		</g>
		<path id="Combined-Shape_1_" class="st0" d="M8,91h88c-0.8,23.6-20.2,42.5-44,42.5S8.8,114.6,8,91z"/>
	</g>
</g>
</svg>
